<?xml version="1.0" encoding="UTF-8" standalone="no"?>
<!-- Created with Inkscape (http://www.inkscape.org/) -->

<svg
   xmlns:dc="http://purl.org/dc/elements/1.1/"
   xmlns:cc="http://creativecommons.org/ns#"
   xmlns:rdf="http://www.w3.org/1999/02/22-rdf-syntax-ns#"
   xmlns:svg="http://www.w3.org/2000/svg"
   xmlns="http://www.w3.org/2000/svg"
   xmlns:sodipodi="http://sodipodi.sourceforge.net/DTD/sodipodi-0.dtd"
   xmlns:inkscape="http://www.inkscape.org/namespaces/inkscape"
   width="210mm"
   height="297mm"
   viewBox="0 0 210 297"
   version="1.1"
   id="svg8"
   sodipodi:docname="drawing.svg"
   inkscape:version="0.92.2 5c3e80d, 2017-08-06">
  <defs
     id="defs2" />
  <sodipodi:namedview
     id="base"
     pagecolor="#ffffff"
     bordercolor="#666666"
     borderopacity="1.0"
     inkscape:pageopacity="0.0"
     inkscape:pageshadow="2"
     inkscape:zoom="0.49497475"
     inkscape:cx="552.40844"
     inkscape:cy="607.66735"
     inkscape:document-units="mm"
     inkscape:current-layer="layer2"
     showgrid="false"
     inkscape:snap-global="false"
     inkscape:window-width="1440"
     inkscape:window-height="775"
     inkscape:window-x="0"
     inkscape:window-y="1"
     inkscape:window-maximized="1" />
  <metadata
     id="metadata5">
    <rdf:RDF>
      <cc:Work
         rdf:about="">
        <dc:format>image/svg+xml</dc:format>
        <dc:type
           rdf:resource="http://purl.org/dc/dcmitype/StillImage" />
      </cc:Work>
    </rdf:RDF>
  </metadata>
  <g
     inkscape:label="Layer 1"
     inkscape:groupmode="layer"
     id="layer1">
    <path
       style="opacity:1;fill:#46ae4b;fill-opacity:1;fill-rule:nonzero;stroke:none;stroke-width:0.04765921;stroke-linejoin:round;stroke-miterlimit:4;stroke-dasharray:none;stroke-dashoffset:116.38866425;stroke-opacity:1"
       d="m 157.74958,248.35694 c 0,0 -32.14552,16.57071 -40.05017,0.53454 -7.90463,-16.03617 -1.05387,-20.84702 -1.05387,-20.84702 0,0 -10.01254,-4.81085 -10.01254,-10.15624 0,-5.34539 5.79674,-8.01809 5.79674,-8.01809 0,0 -8.9586,-3.20723 -7.37767,-6.41447 1.58093,-3.20723 5.26975,-20.84702 5.26975,-20.84702 0,0 -18.971124,-2.13816 -18.971124,-13.89801 0,-11.75987 24.767864,-21.91611 27.402734,-36.8832 2.6348,-14.96709 -12.64742,-14.43255 -10.5395,-32.606883 2.108,-18.174327 6.3237,-19.777943 6.3237,-19.777943 l -9.48556,2.138157 c 0,0 -1.58093,-8.552625 -3.16187,-5.879931 -1.58093,2.672696 -4.742774,12.294399 -4.742774,12.294399 l -6.32371,-17.105249 -3.16187,13.898015 c 0,0 -1.05386,-16.036174 4.7428,-25.657876 5.79673,-9.621703 31.091584,-30.468725 65.871984,-35.279576 34.78042,-4.810852 41.10412,4.810851 41.10412,4.810851 l -0.52707,202.590296 z"
       id="path817"
       inkscape:connector-curvature="0" />
    <path
       style="opacity:1;fill:#8731c9;fill-opacity:1;fill-rule:nonzero;stroke:none;stroke-width:0.04765921;stroke-linejoin:round;stroke-miterlimit:4;stroke-dasharray:none;stroke-dashoffset:116.38866425;stroke-opacity:1"
       d="m 110.6414,82.714689 c -22.745054,25.420031 9.8201,40.034641 2.84121,47.869721 -16.282904,18.28045 -45.693314,47.10106 -8.95759,56.30055 l -4.742784,20.31248 4.215804,2.67269 c 0,0 -8.431624,10.69079 4.7428,19.24341 0,0 -0.52707,22.98518 7.90462,27.79603 8.43161,4.81085 34.78043,2.13816 83.26219,-20.84702 0,0 -7.85769,52.58535 -122.785384,39.55589 -44.96201,-6.83588 -58.15292,-23.42388 -62.64857,-88.6257 -3.69009,-53.51855 -3.75703,-157.578869 8.31638,-164.322322 8.1029,-4.029436 31.02286,-0.775488 34.05297,-1.67995 8.88088,-2.650869 29.52583,-2.467634 34.27288,-1.892347 6.42046,2.43129 98.291184,-0.841929 102.871894,-0.09522 1.17329,0.191275 -47.76641,2.836374 -53.7956,5.58089 -12.38494,4.248717 -24.97795,8.596875 -33.24228,14.93267 -17.773994,13.626306 -23.631634,32.335328 -21.396064,50.082381 4.552,1.754037 4.4854,-8.791022 5.01139,-11.345078 0.48394,-2.350355 1.46986,2.818999 7.01865,13.83435 l 4.686254,-9.993203 z"
       id="path819"
       inkscape:connector-curvature="0"
       sodipodi:nodetypes="csccccsccscscscscsccc" />
    <path
       style="opacity:1;fill:#8731c9;fill-opacity:1;fill-rule:nonzero;stroke:none;stroke-width:1.648;stroke-linejoin:round;stroke-miterlimit:4;stroke-dasharray:none;stroke-dashoffset:116.38866425;stroke-opacity:1"
       d="m 70.559154,125.41296 -0.534538,6.41447 10.15624,-3.20723 c 0,0 -1.069078,-3.20724 -9.621702,-3.20724 z"
       id="path4653"
       inkscape:connector-curvature="0" />
  </g>
  <g
     inkscape:groupmode="layer"
     id="layer2"
     inkscape:label="Layer 2">
    <path
       style="opacity:1;fill:#000000;fill-opacity:1;fill-rule:nonzero;stroke:none;stroke-width:1.648;stroke-linejoin:round;stroke-miterlimit:4;stroke-dasharray:none;stroke-dashoffset:116.38866425;stroke-opacity:1"
       d="m 259.78598,79.977143 7.48353,2.672694"
       id="path935"
       inkscape:connector-curvature="0" />
    <g
       id="g4713"
       transform="matrix(1.6486608,0,0,3.0005796,-17.047985,-437.2264)">
      <path
         inkscape:connector-curvature="0"
         id="path905-3-9"
         d="m 61.470583,212.60746 -7.799031,0.25157 -7.620246,-14.32868 -7.01956,0.26112 -6.003581,12.77283 -8.972499,0.58437 14.430721,-32.45994 7.413557,-0.6035 z"
         style="opacity:1;fill:#000000;fill-opacity:1;fill-rule:nonzero;stroke:#ffffff;stroke-width:1.13410962;stroke-linejoin:round;stroke-miterlimit:4;stroke-dasharray:none;stroke-dashoffset:116.38866425;stroke-opacity:1" />
      <path
         inkscape:connector-curvature="0"
         id="path907-8-1"
         d="m 41.33403,185.79904 1.850788,8.00832 -5.062343,-0.40928 z"
         style="opacity:1;fill:#8731c9;fill-opacity:1;fill-rule:nonzero;stroke:none;stroke-width:1.13410962;stroke-linejoin:round;stroke-miterlimit:4;stroke-dasharray:none;stroke-dashoffset:116.38866425;stroke-opacity:1" />
    </g>
    <path
       style="opacity:1;fill:#000000;fill-opacity:1;fill-rule:nonzero;stroke:#ffffff;stroke-width:2.80601859;stroke-linejoin:round;stroke-miterlimit:4;stroke-dasharray:none;stroke-dashoffset:116.38866425;stroke-opacity:1"
       d="m 121.14254,100.74464 15.88381,-0.837306 12.13593,43.167926 14.30437,-0.85833 15.14765,-38.6087 18.34222,-1.85344 -36.81836,98.10907 -15.18334,1.89557 z"
       id="path905-3-9-5"
       inkscape:connector-curvature="0" />
    <path
       style="opacity:1;fill:#46ae4b;fill-opacity:1;fill-rule:nonzero;stroke:none;stroke-width:2.80601859;stroke-linejoin:round;stroke-miterlimit:4;stroke-dasharray:none;stroke-dashoffset:116.38866425;stroke-opacity:1"
       d="m 155.7785,181.45134 -1.89623,-24.15071 10.17724,1.18454 z"
       id="path907-8-1-5"
       inkscape:connector-curvature="0" />
  </g>
</svg>
